<!-- Generated by IcoMoon.io -->
<svg version="1.1" xmlns="http://www.w3.org/2000/svg" width="32" height="32" viewBox="0 0 32 32">
<path fill="#2e2f42" stroke-linejoin="miter" stroke-linecap="butt" stroke-miterlimit="4" stroke-width="0.5" stroke="#000" d="M30.596 22.274l0.001 0.001c0.111 0.111 0.111 0.29 0 0.401-0 0-0 0-0 0l-1.512 1.503c-0.052 0.052-0.123 0.082-0.197 0.082-0.075-0.001-0.146-0.032-0.198-0.085l-0.001-0.001-0.95-0.955-0.164 0.089c-2.126 1.148-4.504 1.751-6.921 1.753-1.007-0.003-2.012-0.108-2.998-0.315l-0.301-0.063v3.3h6.65c1.334 0.002 2.415 1.083 2.417 2.417v1.066c0 0.157-0.127 0.283-0.283 0.283h-24.533c-0.156 0-0.283-0.127-0.283-0.283v-1.067c0.002-1.334 1.083-2.415 2.417-2.417h6.65v-6.436c0.001-0.168 0.017-0.337 0.048-0.502l0.036-0.195-0.181-0.080c-0.027-0.012-0.051-0.028-0.072-0.048-4.568-4.607-5.574-11.665-2.475-17.365l0.089-0.163-0.945-0.959c-0.111-0.111-0.111-0.29-0-0.4 0-0 0-0 0-0l1.512-1.504c0.052-0.052 0.123-0.082 0.197-0.082 0.075 0.001 0.146 0.032 0.198 0.085h-0l8.178 8.221 5.391-0.658-0.105-0.294c-0.076-0.213-0.113-0.437-0.11-0.662 0.012-1.054 0.877-1.899 1.931-1.886s1.899 0.877 1.886 1.931-0.877 1.899-1.931 1.886v-0h-0.008c-0.229-0.002-0.455-0.045-0.669-0.128l-0.277-0.108-0.059 0.291-0.964 4.746 8.537 8.6zM23.104 6.056l0.001 0.001c-0.246 0.245-0.385 0.578-0.387 0.926-0.004 0.727 0.583 1.32 1.31 1.324h0.004c0 0 0 0 0 0 0.348 0 0.682-0.138 0.929-0.383 0.516-0.513 0.518-1.346 0.005-1.862s-1.346-0.518-1.862-0.005zM22.269 9.787l0.164-0.809-2.537 2.522 1.681 1.691 0.691-3.403zM21.595 9.013l0.517-0.514-4.636 0.566 2.022 2.033 2.097-2.085zM25.604 31.183h0.25v-0.783c0-1.022-0.828-1.85-1.85-1.85h-20.267c-1.022 0-1.85 0.828-1.85 1.85v0.783h23.717zM16.787 26.667v-0.25h-5.833v1.567h5.833v-1.317zM10.954 25.6v0.25h5.833v-4.303c0-1.461-1.339-2.597-2.917-2.597s-2.917 1.136-2.917 2.597v4.053zM17.354 23.904v0.2l0.195 0.044c3.201 0.722 6.553 0.303 9.477-1.184l0.306-0.156-19.086-19.196-0.157 0.306c-2.741 5.336-1.811 11.823 2.32 16.174l0.222 0.234 0.171-0.274c0.659-1.055 1.822-1.688 3.065-1.669v0h0.004c1.942 0 3.483 1.44 3.483 3.163v2.357zM28.716 23.397l0.176 0.177 1.111-1.104-13.282-13.36c-0.007-0.008-0.016-0.018-0.027-0.028-0.002-0.001-0.003-0.003-0.005-0.004l-8.097-8.143-1.109 1.105 0.931 0.933 20.302 20.424z"></path>
<path fill="#4d5ae5" stroke-linejoin="miter" stroke-linecap="butt" stroke-miterlimit="4" stroke-width="0.5" stroke="#000" d="M13.866 23.467h0.005c0.884 0.001 1.601-0.714 1.602-1.598s-0.714-1.601-1.598-1.602M13.866 23.467l0-0.25h0.005c0.746 0.001 1.351-0.602 1.352-1.348s-0.602-1.351-1.348-1.352M13.866 23.467c-0.884-0.001-1.599-0.719-1.598-1.602s0.719-1.599 1.602-1.598h0.005M13.866 23.467v-0.25h0c-0.745-0.001-1.349-0.607-1.348-1.352s0.606-1.349 1.352-1.348h0.005M13.875 20.517h0v-0.25M13.875 20.517c-0 0-0 0-0 0l0-0.25M14.425 22.422l0.43-0.427h-0.214c0.007-0.041 0.010-0.082 0.011-0.124 0.002-0.433-0.347-0.785-0.779-0.787v0h-0.003c-0.206 0.001-0.403 0.083-0.548 0.228l-0 0c-0.147 0.146-0.23 0.344-0.231 0.551-0.002 0.433 0.347 0.785 0.779 0.787h0c0.208 0.001 0.408-0.081 0.555-0.228z"></path>
</svg>
